<svg version="1.1" xmlns="http://www.w3.org/2000/svg" viewBox="0 0 2209.4650070775924 2149.666717529297" width="2209.4650070775924" height="2149.666717529297">
  <!-- svg-source:excalidraw -->
  
  <defs>
    <style class="style-fonts">
      @font-face {
        font-family: "Virgil";
        src: url("https://excalidraw.com/Virgil.woff2");
      }
      @font-face {
        font-family: "Cascadia";
        src: url("https://excalidraw.com/Cascadia.woff2");
      }
    </style>
  </defs>
  <rect x="0" y="0" width="2209.4650070775924" height="2149.666717529297" fill="#ffffff"></rect><g stroke-linecap="round" transform="translate(1471.3028273214486 265.3333740234375) rotate(0 82.33331298828125 109.99998474121094)"><path d="M32 0 M32 0 C60.68 -0.25, 85.02 0.68, 132.67 0 M32 0 C66.25 -0.58, 101.02 -1.05, 132.67 0 M132.67 0 C154.85 -0.02, 163.58 11.69, 164.67 32 M132.67 0 C153.84 -1.13, 164.97 12.29, 164.67 32 M164.67 32 C164.49 67.52, 161.83 101.07, 164.67 188 M164.67 32 C164.87 71.76, 164.14 113.27, 164.67 188 M164.67 188 C166.64 209.16, 155.44 219.47, 132.67 220 M164.67 188 C164.33 208.7, 154.04 220.81, 132.67 220 M132.67 220 C94.71 219.33, 53.88 220.62, 32 220 M132.67 220 C110.64 218.76, 88.03 219, 32 220 M32 220 C9.12 218.05, -1.13 210.07, 0 188 M32 220 C12.76 217.74, -0.8 208.55, 0 188 M0 188 C0.99 144.08, -0.5 102.73, 0 32 M0 188 C-1.24 133.26, -0.96 78.57, 0 32 M0 32 C-0.77 10.68, 12.16 1.71, 32 0 M0 32 C-1.7 12.45, 9.66 -2.04, 32 0" stroke="#000000" stroke-width="1" fill="none"></path></g><g transform="translate(1515.3028273214486 308.66668701171875) rotate(0 38.71996307373047 24)"><text x="0" y="0" font-family="Virgil, Segoe UI Emoji" font-size="20px" fill="#000000" text-anchor="start" style="white-space: pre;" direction="ltr" dominant-baseline="text-before-edge">Monster</text><text x="0" y="24" font-family="Virgil, Segoe UI Emoji" font-size="20px" fill="#000000" text-anchor="start" style="white-space: pre;" direction="ltr" dominant-baseline="text-before-edge"></text></g><g transform="translate(1517.3028883566049 362) rotate(0 27.623985290527344 28.80000000000001)"><text x="0" y="0" font-family="Virgil, Segoe UI Emoji" font-size="16px" fill="#000000" text-anchor="start" style="white-space: pre;" direction="ltr" dominant-baseline="text-before-edge">name</text><text x="0" y="19.2" font-family="Virgil, Segoe UI Emoji" font-size="16px" fill="#000000" text-anchor="start" style="white-space: pre;" direction="ltr" dominant-baseline="text-before-edge">attack</text><text x="0" y="38.4" font-family="Virgil, Segoe UI Emoji" font-size="16px" fill="#000000" text-anchor="start" style="white-space: pre;" direction="ltr" dominant-baseline="text-before-edge">type</text></g><g stroke-linecap="round" transform="translate(1057.3028273214486 62.000030517578125) rotate(0 69.66665649414062 51.666656494140625)"><path d="M25.83 0 M25.83 0 C57.3 -2.07, 88.9 -2.1, 113.5 0 M25.83 0 C45.85 1.36, 65.75 -0.22, 113.5 0 M113.5 0 C131.29 -1.51, 140.84 8.3, 139.33 25.83 M113.5 0 C129.55 1.11, 141.43 8.94, 139.33 25.83 M139.33 25.83 C139.24 37.89, 137.68 50.67, 139.33 77.5 M139.33 25.83 C138.19 37.26, 138.76 48.41, 139.33 77.5 M139.33 77.5 C141.18 94.64, 131.1 102.77, 113.5 103.33 M139.33 77.5 C138.7 96.26, 132.71 101.12, 113.5 103.33 M113.5 103.33 C93.48 102.62, 74.92 103.07, 25.83 103.33 M113.5 103.33 C85.65 102.26, 58.77 102.2, 25.83 103.33 M25.83 103.33 C10.61 102.19, 1.91 92.84, 0 77.5 M25.83 103.33 C10.24 105.42, -0.07 95.82, 0 77.5 M0 77.5 C0.75 61.17, 1.27 42.85, 0 25.83 M0 77.5 C-0.65 60.05, 0.78 44.03, 0 25.83 M0 25.83 C-1.68 8.05, 8.96 -1.45, 25.83 0 M0 25.83 C-1.9 6.96, 10.31 -1, 25.83 0" stroke="#000000" stroke-width="1" fill="none"></path></g><g transform="translate(1086.636201344886 102.66668701171875) rotate(0 41.41596984863281 9.599999999999994)"><text x="0" y="0" font-family="Virgil, Segoe UI Emoji" font-size="16px" fill="#000000" text-anchor="start" style="white-space: pre;" direction="ltr" dominant-baseline="text-before-edge">AirMonster</text></g><g stroke-linecap="round" transform="translate(1057.636170827308 340.33331298828125) rotate(0 69.66665649414062 51.666656494140625)"><path d="M25.83 0 M25.83 0 C42.36 -1.6, 64.39 -2.82, 113.5 0 M25.83 0 C52.14 0.69, 76.02 0.36, 113.5 0 M113.5 0 C131.25 0.23, 139.33 7.64, 139.33 25.83 M113.5 0 C131.27 0.64, 138.42 9.09, 139.33 25.83 M139.33 25.83 C139.13 38.1, 139.03 47.95, 139.33 77.5 M139.33 25.83 C139.07 46.56, 139.82 65.48, 139.33 77.5 M139.33 77.5 C139.28 93.43, 131.8 104.21, 113.5 103.33 M139.33 77.5 C141.56 94.66, 131.58 102.97, 113.5 103.33 M113.5 103.33 C82.57 101.94, 55.21 103.76, 25.83 103.33 M113.5 103.33 C87.93 103.75, 64.66 103.08, 25.83 103.33 M25.83 103.33 C9.83 104.21, -0.43 94.07, 0 77.5 M25.83 103.33 C8.17 102.62, 0.75 96.82, 0 77.5 M0 77.5 C1.09 57.8, -0.33 40.01, 0 25.83 M0 77.5 C-1.1 65.46, -1.12 54.03, 0 25.83 M0 25.83 C0.53 8.3, 9.44 0.15, 25.83 0 M0 25.83 C-1.46 10.45, 9.36 1.07, 25.83 0" stroke="#000000" stroke-width="1" fill="none"></path></g><g transform="translate(1081.636170827308 382.33331298828125) rotate(0 45.13597106933594 9.599999999999994)"><text x="0" y="0" font-family="Virgil, Segoe UI Emoji" font-size="16px" fill="#000000" text-anchor="start" style="white-space: pre;" direction="ltr" dominant-baseline="text-before-edge">FireMonster</text></g><g stroke-linecap="round" transform="translate(1060.3027968038705 626.0000305175781) rotate(0 69.66665649414062 51.666656494140625)"><path d="M25.83 0 M25.83 0 C59.42 -0.21, 93.63 0.68, 113.5 0 M25.83 0 C58.65 0.55, 90.16 0.78, 113.5 0 M113.5 0 C131.91 -1.56, 139.63 9.31, 139.33 25.83 M113.5 0 C130.03 0.47, 141.3 8.9, 139.33 25.83 M139.33 25.83 C140 44.49, 140.28 63.91, 139.33 77.5 M139.33 25.83 C139.96 41.59, 139.41 57.96, 139.33 77.5 M139.33 77.5 C140.13 94.46, 132.56 103.7, 113.5 103.33 M139.33 77.5 C140.98 93.86, 129.65 101.15, 113.5 103.33 M113.5 103.33 C87.25 103.26, 61.29 103, 25.83 103.33 M113.5 103.33 C86 104.85, 57.33 104.31, 25.83 103.33 M25.83 103.33 C10.06 103.87, 0.33 95.94, 0 77.5 M25.83 103.33 C8.79 104.33, 1.89 92.8, 0 77.5 M0 77.5 C-1.34 62.26, -1.61 46.71, 0 25.83 M0 77.5 C0.93 60.38, -0.01 44.73, 0 25.83 M0 25.83 C0.24 8.59, 9.34 1.11, 25.83 0 M0 25.83 C0.81 6.95, 9.84 0.38, 25.83 0" stroke="#000000" stroke-width="1" fill="none"></path></g><g transform="translate(1077.6362318624642 664.0000610351562) rotate(0 54.615966796875 9.600000000000023)"><text x="0" y="0" font-family="Virgil, Segoe UI Emoji" font-size="16px" fill="#000000" text-anchor="start" style="white-space: pre;" direction="ltr" dominant-baseline="text-before-edge">WaterMonster</text></g><g stroke-linecap="round"><g transform="translate(1196.636201344886 116.00003051757812) rotate(0 138.92904279820618 108.1530980426818)"><path d="M0.78 -0.73 C47 35.56, 232.12 180.74, 278.13 217.03 M-0.27 1.5 C45.78 37.53, 231.59 179.83, 277.59 215.45" stroke="#000000" stroke-width="1" fill="none"></path></g><g transform="translate(1196.636201344886 116.00003051757812) rotate(0 138.92904279820618 108.1530980426818)"><path d="M247.78 207.71 C261.25 208.68, 271.83 213.76, 277.95 217.02 M249.76 206.77 C259.16 209.97, 270.21 212.69, 278.29 215.39" stroke="#000000" stroke-width="1" fill="none"></path></g><g transform="translate(1196.636201344886 116.00003051757812) rotate(0 138.92904279820618 108.1530980426818)"><path d="M260.3 191.45 C269.05 198.51, 275 209.61, 277.95 217.02 M262.27 190.51 C267.08 199.58, 273.56 208.24, 278.29 215.39" stroke="#000000" stroke-width="1" fill="none"></path></g></g><mask></mask><g stroke-linecap="round"><g transform="translate(1201.3028273214486 393.88857329912634) rotate(0 131.89814255126754 -2.637314575930418)"><path d="M0.72 -0.28 C44.67 -1.14, 220.08 -4.38, 264.15 -5 M-0.36 -1.47 C43.41 -2.25, 219.06 -3.83, 263.29 -4.04" stroke="#000000" stroke-width="1" fill="none"></path></g><g transform="translate(1201.3028273214486 393.88857329912634) rotate(0 131.89814255126754 -2.637314575930418)"><path d="M234.71 6.68 C242.81 4.64, 253.97 -2.49, 264.77 -5.77 M235.45 6.58 C241.16 4.59, 246.27 2.03, 263.3 -3.12" stroke="#000000" stroke-width="1" fill="none"></path></g><g transform="translate(1201.3028273214486 393.88857329912634) rotate(0 131.89814255126754 -2.637314575930418)"><path d="M234.56 -13.84 C242.75 -8.94, 253.96 -9.13, 264.77 -5.77 M235.3 -13.94 C241.22 -11.82, 246.36 -10.28, 263.3 -3.12" stroke="#000000" stroke-width="1" fill="none"></path></g></g><mask></mask><g stroke-linecap="round"><g transform="translate(1211.3028883566049 666.405840511567) rotate(0 125.89458435797133 -103.07017233714606)"><path d="M0.96 -0.67 C43.04 -35.3, 210.09 -173.39, 251.78 -207.74 M0.01 1.59 C42.03 -32.83, 209.37 -171.12, 251.06 -206.13" stroke="#000000" stroke-width="1" fill="none"></path></g><g transform="translate(1211.3028883566049 666.405840511567) rotate(0 125.89458435797133 -103.07017233714606)"><path d="M234.84 -179.48 C239.81 -187.04, 245.16 -193.89, 251.78 -206.1 M236.3 -179.91 C240.5 -185.77, 242.68 -193.58, 252.05 -206.86" stroke="#000000" stroke-width="1" fill="none"></path></g><g transform="translate(1211.3028883566049 666.405840511567) rotate(0 125.89458435797133 -103.07017233714606)"><path d="M221.71 -195.25 C229.87 -199.1, 238.41 -202.12, 251.78 -206.1 M223.18 -195.69 C230.55 -197.76, 235.87 -201.79, 252.05 -206.86" stroke="#000000" stroke-width="1" fill="none"></path></g></g><mask></mask><g transform="translate(806.636170827308 10) rotate(0 92.95195770263672 21.599999999999994)"><text x="0" y="0" font-family="Virgil, Segoe UI Emoji" font-size="36px" fill="#000000" text-anchor="start" style="white-space: pre;" direction="ltr" dominant-baseline="text-before-edge">Challenge 1</text></g><g stroke-linecap="round" transform="translate(877.9695448507455 935.9999694824219) rotate(0 69.66665649414062 51.666656494140625)"><path d="M25.83 0 M25.83 0 C58.09 0.34, 89.09 -0.17, 113.5 0 M25.83 0 C46.92 0.79, 66.91 1.17, 113.5 0 M113.5 0 C132.23 1.12, 138.45 6.76, 139.33 25.83 M113.5 0 C131.93 0.25, 139.49 8.65, 139.33 25.83 M139.33 25.83 C140.09 39.6, 137.25 56.37, 139.33 77.5 M139.33 25.83 C139.84 41.44, 139.69 57.93, 139.33 77.5 M139.33 77.5 C139.71 94.16, 130.27 102.11, 113.5 103.33 M139.33 77.5 C138.14 96, 130.29 103.73, 113.5 103.33 M113.5 103.33 C85.95 101.81, 60.28 101.03, 25.83 103.33 M113.5 103.33 C86.97 102.77, 59.69 103.89, 25.83 103.33 M25.83 103.33 C7.94 103.47, 0.25 96.07, 0 77.5 M25.83 103.33 C8.4 101.99, 0.15 96.72, 0 77.5 M0 77.5 C1.61 56.34, -0.82 38.68, 0 25.83 M0 77.5 C-0.05 64.38, 0.88 52.04, 0 25.83 M0 25.83 C-0.93 9.45, 7.29 -0.67, 25.83 0 M0 25.83 C-2.18 7.9, 8.04 1.65, 25.83 0" stroke="#000000" stroke-width="1" fill="none"></path></g><g transform="translate(907.302918874183 976.6666259765625) rotate(0 41.41596984863281 9.600000000000023)"><text x="0" y="0" font-family="Virgil, Segoe UI Emoji" font-size="16px" fill="#000000" text-anchor="start" style="white-space: pre;" direction="ltr" dominant-baseline="text-before-edge">AirMonster</text></g><g stroke-linecap="round" transform="translate(871.636170827308 1402.6667175292969) rotate(0 67.04432588676698 49.72186595124094)"><path d="M24.86 0 M24.86 0 C53.92 -2.27, 84.19 0.64, 109.23 0 M24.86 0 C52.46 0.08, 78.12 -1.4, 109.23 0 M109.23 0 C126.85 0.22, 134.22 8.32, 134.09 24.86 M109.23 0 C125.74 -0.44, 133.23 9.27, 134.09 24.86 M134.09 24.86 C133.99 34.14, 134.4 48.59, 134.09 74.58 M134.09 24.86 C134.66 34.97, 134.25 45.02, 134.09 74.58 M134.09 74.58 C133.05 92.27, 125.42 99.79, 109.23 99.44 M134.09 74.58 C134.18 93.31, 124.51 98.43, 109.23 99.44 M109.23 99.44 C88.33 100.32, 67.22 98.87, 24.86 99.44 M109.23 99.44 C88.07 100, 67.7 100.61, 24.86 99.44 M24.86 99.44 C8.11 98.28, 0.13 92.9, 0 74.58 M24.86 99.44 C10.19 98.16, -0.41 92.68, 0 74.58 M0 74.58 C-0.92 63.37, -1.56 51.71, 0 24.86 M0 74.58 C-0.93 63.57, -1.13 51.39, 0 24.86 M0 24.86 C-1.89 7.67, 7.79 1.44, 24.86 0 M0 24.86 C-2.09 8.06, 9.5 -0.89, 24.86 0" stroke="#000000" stroke-width="1" fill="none"></path></g><g transform="translate(883.6253753635621 1443.5016243000666) rotate(0 53.94190216064453 27)"><text x="53.94190216064453" y="0" font-family="Virgil, Segoe UI Emoji" font-size="15.397742164912032px" fill="#000000" text-anchor="middle" style="white-space: pre;" direction="ltr" dominant-baseline="text-before-edge">life - damage </text><text x="53.94190216064453" y="18" font-family="Virgil, Segoe UI Emoji" font-size="15.397742164912032px" fill="#000000" text-anchor="middle" style="white-space: pre;" direction="ltr" dominant-baseline="text-before-edge">=</text><text x="53.94190216064453" y="36" font-family="Virgil, Segoe UI Emoji" font-size="15.397742164912032px" fill="#000000" text-anchor="middle" style="white-space: pre;" direction="ltr" dominant-baseline="text-before-edge">new life</text></g><g stroke-linecap="round" transform="translate(878.6361403097299 1315.3333892822266) rotate(0 65.66668701171875 16.666671752929688)"><path d="M8.33 0 M8.33 0 C34.44 0.92, 62.72 0.91, 123 0 M8.33 0 C37.81 -0.53, 67.08 -0.63, 123 0 M123 0 C128.18 -0.75, 132.18 1.17, 131.33 8.33 M123 0 C126.27 -0.23, 131.79 0.88, 131.33 8.33 M131.33 8.33 C132.79 12.43, 131.8 19.2, 131.33 25 M131.33 8.33 C131.69 12.8, 131.38 17.61, 131.33 25 M131.33 25 C133.21 29.43, 127.67 32.31, 123 33.33 M131.33 25 C131.46 28.47, 128.64 35.22, 123 33.33 M123 33.33 C87.84 33.89, 54.26 32.86, 8.33 33.33 M123 33.33 C86.57 33.29, 52.17 34.05, 8.33 33.33 M8.33 33.33 C1.67 32.98, 1.33 29.16, 0 25 M8.33 33.33 C1.51 34.15, -1.37 30.83, 0 25 M0 25 C1.57 20.47, -0.78 18.75, 0 8.33 M0 25 C-0.2 20.9, 0.65 16.45, 0 8.33 M0 8.33 C-0.19 3.84, 2 -0.89, 8.33 0 M0 8.33 C1.61 4.85, 4.62 1.73, 8.33 0" stroke="#000000" stroke-width="1" fill="none"></path></g><g transform="translate(903.6468443502572 1322.4000610351563) rotate(0 40.655982971191406 9.600000000000023)"><text x="40.655982971191406" y="0" font-family="Virgil, Segoe UI Emoji" font-size="16px" fill="#000000" text-anchor="middle" style="white-space: pre;" direction="ltr" dominant-baseline="text-before-edge">Damage *1</text></g><g transform="translate(785.3028273214486 808) rotate(0 100.88995361328125 21.600000000000023)"><text x="0" y="0" font-family="Virgil, Segoe UI Emoji" font-size="36px" fill="#000000" text-anchor="start" style="white-space: pre;" direction="ltr" dominant-baseline="text-before-edge">Challenge 2</text></g><g stroke-linecap="round" transform="translate(816.6362013448861 1079.9999389648438) rotate(0 123 68)"><path d="M155 17.25 M155 17.25 C173.61 27.31, 191.78 38.47, 215 51.75 M155 17.25 C176.09 29.25, 198.27 41.04, 215 51.75 M215 51.75 C246.39 68.75, 245.41 67.23, 215 86.25 M215 51.75 C247.77 70.61, 247.35 68.82, 215 86.25 M215 86.25 C198.87 93.99, 179.14 105.95, 155 118.75 M215 86.25 C200.72 94.5, 185.15 101.6, 155 118.75 M155 118.75 C122.78 137.74, 124.4 134.87, 93 118.75 M155 118.75 C123.02 134.03, 124.58 137.9, 93 118.75 M93 118.75 C78.62 111.21, 59.94 100.14, 31 86.25 M93 118.75 C75.76 109.32, 58.55 101.61, 31 86.25 M31 86.25 C-0.24 68.73, -0.61 70.51, 31 51.75 M31 86.25 C-2.16 68.94, -1.68 67.54, 31 51.75 M31 51.75 C49.66 41.22, 69.96 27.42, 93 17.25 M31 51.75 C48.92 43.05, 66.96 32.51, 93 17.25 M93 17.25 C125.69 -0.56, 125.48 0.03, 155 17.25 M93 17.25 C122.81 -1.44, 126.21 -2, 155 17.25" stroke="#000000" stroke-width="1" fill="none"></path></g><g transform="translate(885.0202345480111 1119.1999389648438) rotate(0 54.615966796875 28.799999999999955)"><text x="54.615966796875" y="0" font-family="Virgil, Segoe UI Emoji" font-size="16px" fill="#000000" text-anchor="middle" style="white-space: pre;" direction="ltr" dominant-baseline="text-before-edge">Si </text><text x="54.615966796875" y="19.2" font-family="Virgil, Segoe UI Emoji" font-size="16px" fill="#000000" text-anchor="middle" style="white-space: pre;" direction="ltr" dominant-baseline="text-before-edge">attack</text><text x="54.615966796875" y="38.4" font-family="Virgil, Segoe UI Emoji" font-size="16px" fill="#000000" text-anchor="middle" style="white-space: pre;" direction="ltr" dominant-baseline="text-before-edge">WaterMonster</text></g><g stroke-linecap="round" transform="translate(1041.636170827308 1314.333267211914) rotate(0 65.66668701171875 16.666671752929688)"><path d="M8.33 0 M8.33 0 C36.09 1.03, 58.37 -0.38, 123 0 M8.33 0 C34.77 0.32, 60.32 -0.49, 123 0 M123 0 C129.23 0.08, 132.59 2.83, 131.33 8.33 M123 0 C130.4 1.74, 131.21 1.24, 131.33 8.33 M131.33 8.33 C131.08 14.7, 133 20.84, 131.33 25 M131.33 8.33 C131.22 12.59, 130.74 17.58, 131.33 25 M131.33 25 C129.48 31.18, 128.45 32.37, 123 33.33 M131.33 25 C133.18 31.5, 127.5 35.32, 123 33.33 M123 33.33 C93.47 33.35, 64.93 34.23, 8.33 33.33 M123 33.33 C92.29 34.69, 62.09 34.39, 8.33 33.33 M8.33 33.33 C3.39 34.83, 1.75 30.25, 0 25 M8.33 33.33 C4.13 34.2, 0.43 29.27, 0 25 M0 25 C0.2 18.11, -0.02 12.59, 0 8.33 M0 25 C0.09 18.96, 0.29 13.24, 0 8.33 M0 8.33 C-0.36 2.72, 1.96 -1.61, 8.33 0 M0 8.33 C0.17 4.02, 2.52 -0.41, 8.33 0" stroke="#000000" stroke-width="1" fill="none"></path></g><g transform="translate(1063.1188749899056 1321.3999389648438) rotate(0 44.183982849121094 9.600000000000023)"><text x="44.183982849121094" y="0" font-family="Virgil, Segoe UI Emoji" font-size="16px" fill="#000000" text-anchor="middle" style="white-space: pre;" direction="ltr" dominant-baseline="text-before-edge">Damage *2</text></g><g stroke-linecap="round" transform="translate(1082.636201344886 1130.0000610351562) rotate(0 28.666656494140625 19)"><path d="M9.5 0 M9.5 0 C23.27 -1.21, 37.87 0.15, 47.83 0 M9.5 0 C16.93 0.39, 26.22 0.86, 47.83 0 M47.83 0 C53.21 -1.59, 56.23 4.92, 57.33 9.5 M47.83 0 C55.47 -1.68, 56.1 3.08, 57.33 9.5 M57.33 9.5 C58.54 14.43, 57.97 21.53, 57.33 28.5 M57.33 9.5 C57.02 13.43, 57.65 18.96, 57.33 28.5 M57.33 28.5 C58.08 36.52, 54.16 38.73, 47.83 38 M57.33 28.5 C58.36 33.3, 53.54 35.73, 47.83 38 M47.83 38 C37.28 37.84, 23.69 38.64, 9.5 38 M47.83 38 C33.41 37.6, 17.7 37.68, 9.5 38 M9.5 38 C4.8 36.47, -0.24 34.33, 0 28.5 M9.5 38 C3.2 38.48, -0.8 32.55, 0 28.5 M0 28.5 C0.42 25.09, -1.57 17.8, 0 9.5 M0 28.5 C-0.88 21.28, -0.25 12.68, 0 9.5 M0 9.5 C1.79 4.07, 1.96 0.63, 9.5 0 M0 9.5 C0.32 2.1, 3.23 0.3, 9.5 0" stroke="#000000" stroke-width="1" fill="none"></path></g><g transform="translate(1094.4228682150033 1139.4000610351563) rotate(0 16.879989624023438 9.600000000000023)"><text x="16.879989624023438" y="0" font-family="Virgil, Segoe UI Emoji" font-size="16px" fill="#000000" text-anchor="middle" style="white-space: pre;" direction="ltr" dominant-baseline="text-before-edge">true</text></g><g stroke-linecap="round" transform="translate(910.3028273214486 1245.6666259765625) rotate(0 28.666656494140625 19)"><path d="M9.5 0 M9.5 0 C18.99 -0.68, 26.53 0.92, 47.83 0 M9.5 0 C24.41 0.39, 39.59 -0.49, 47.83 0 M47.83 0 C55.9 0.61, 57.5 3.95, 57.33 9.5 M47.83 0 C52.46 -0.91, 55.82 4.54, 57.33 9.5 M57.33 9.5 C57.52 14.92, 58.23 19.16, 57.33 28.5 M57.33 9.5 C57.96 15.14, 56.72 20.61, 57.33 28.5 M57.33 28.5 C56.35 36.42, 55.76 37.93, 47.83 38 M57.33 28.5 C55.84 36.76, 52.6 36.93, 47.83 38 M47.83 38 C34.51 37.43, 17.11 38.11, 9.5 38 M47.83 38 C33.03 38.29, 18.94 37.31, 9.5 38 M9.5 38 C2.66 37.84, -0.37 34.14, 0 28.5 M9.5 38 C3.33 40.18, 0.75 35.82, 0 28.5 M0 28.5 C0.12 20.88, -0.38 15, 0 9.5 M0 28.5 C-0.66 20.94, 0.74 14.37, 0 9.5 M0 9.5 C-1.41 4.27, 1.88 0.25, 9.5 0 M0 9.5 C0.64 4.89, 0.93 -0.98, 9.5 0" stroke="#000000" stroke-width="1" fill="none"></path></g><g transform="translate(918.9215025533822 1255.0666259765626) rotate(0 20.04798126220703 9.600000000000023)"><text x="20.04798126220703" y="0" font-family="Virgil, Segoe UI Emoji" font-size="16px" fill="#000000" text-anchor="middle" style="white-space: pre;" direction="ltr" dominant-baseline="text-before-edge">false</text></g><g stroke-linecap="round"><g transform="translate(1051.9695143331674 1146) rotate(0 16.247307761386026 -0.05788970452670128)"><path d="M-0.26 -1.02 C5.02 -1.38, 27.2 -1.16, 32.76 -1.05 M1.8 1.07 C6.83 1.33, 26.73 -0.01, 31.86 -0.06" stroke="#000000" stroke-width="1" fill="none"></path></g></g><mask></mask><g stroke-linecap="round"><g transform="translate(938.0555195600625 1212.0579507396828) rotate(0 -0.1637553857811156 14.188554445123373)"><path d="M-1.03 -1.2 C-0.8 3.65, 0.33 23.19, 0.4 28.02 M0.64 0.79 C0.88 5.94, 0.34 24.87, 0 29.57" stroke="#000000" stroke-width="1" fill="none"></path></g></g><mask></mask><g stroke-linecap="round"><g transform="translate(1109.9695143331674 1170.6666870117188) rotate(0 -0.22256980128588566 73.44009911693638)"><path d="M-1.17 0.93 C-1 25.37, 0.26 121.19, 0.73 145.55 M0.41 0.38 C0.46 25.02, -0.35 122.41, -0.19 146.5" stroke="#000000" stroke-width="1" fill="none"></path></g><g transform="translate(1109.9695143331674 1170.6666870117188) rotate(0 -0.22256980128588566 73.44009911693638)"><path d="M-8.84 118.4 C-9.73 127.68, -4.38 135.19, -2.09 146.27 M-10.1 118 C-7.44 126.96, -4.65 135.1, 0.3 147.43" stroke="#000000" stroke-width="1" fill="none"></path></g><g transform="translate(1109.9695143331674 1170.6666870117188) rotate(0 -0.22256980128588566 73.44009911693638)"><path d="M11.68 118.44 C5.2 127.51, 4.94 135, -2.09 146.27 M10.42 118.03 C7.06 126.86, 3.83 134.99, 0.3 147.43" stroke="#000000" stroke-width="1" fill="none"></path></g></g><mask></mask><g stroke-linecap="round"><g transform="translate(938.5253971227344 1287.893213871345) rotate(0 0.21812126062812354 13.769288531616326)"><path d="M0.59 0.52 C0.92 4.74, 0.94 21.82, 1 26.17 M-0.56 -0.25 C-0.27 4.11, 0.07 23.66, 0.22 27.79" stroke="#000000" stroke-width="1" fill="none"></path></g><g transform="translate(938.5253971227344 1287.893213871345) rotate(0 0.21812126062812354 13.769288531616326)"><path d="M-3.97 16.04 C-3.24 18.59, -1.77 20.62, -0.52 28.07 M-4.04 15.55 C-2.69 18.57, -2.33 21.88, 0.09 28.08" stroke="#000000" stroke-width="1" fill="none"></path></g><g transform="translate(938.5253971227344 1287.893213871345) rotate(0 0.21812126062812354 13.769288531616326)"><path d="M4.92 15.82 C3.73 18.46, 3.27 20.54, -0.52 28.07 M4.85 15.33 C3.89 18.45, 1.93 21.82, 0.09 28.08" stroke="#000000" stroke-width="1" fill="none"></path></g></g><mask></mask><g stroke-linecap="round"><g transform="translate(941.4180495666799 1041.564024456665) rotate(0 -0.06955443164332564 17.518129631783836)"><path d="M0.16 0.13 C-0.12 5.99, -1.1 28.83, -1.07 34.68 M-1.22 -0.84 C-1.2 5.2, 0.92 29.65, 1.08 35.88" stroke="#000000" stroke-width="1" fill="none"></path></g><g transform="translate(941.4180495666799 1041.564024456665) rotate(0 -0.06955443164332564 17.518129631783836)"><path d="M-5.73 18.08 C-4.48 25.82, -1.16 31.79, 0.36 37 M-6.21 19.28 C-3.11 24.93, -1.93 30.63, 0.41 36.13" stroke="#000000" stroke-width="1" fill="none"></path></g><g transform="translate(941.4180495666799 1041.564024456665) rotate(0 -0.06955443164332564 17.518129631783836)"><path d="M6.33 17.37 C3.33 25.38, 2.41 31.6, 0.36 37 M5.86 18.57 C4.84 24.4, 1.91 30.35, 0.41 36.13" stroke="#000000" stroke-width="1" fill="none"></path></g></g><mask></mask><g transform="translate(886.7131169074969 1420.6307402654068) rotate(0 43.415138244628906 9)"><text x="0" y="0" font-family="Virgil, Segoe UI Emoji" font-size="15.397742164912032px" fill="#000000" text-anchor="start" style="white-space: pre;" direction="ltr" dominant-baseline="text-before-edge">FireMonster</text></g><g stroke-linecap="round" transform="translate(1041.591844940541 1405.9447600253216) rotate(0 67.04432588676696 49.72186595124094)"><path d="M24.86 0 M24.86 0 C56.58 0.44, 89.78 -1.99, 109.23 0 M24.86 0 C52.36 0.1, 82.28 0.33, 109.23 0 M109.23 0 C123.92 1.93, 132.31 10.25, 134.09 24.86 M109.23 0 C125.63 -1.32, 135.16 7.2, 134.09 24.86 M134.09 24.86 C136.05 45.42, 133.76 64.08, 134.09 74.58 M134.09 24.86 C133.71 43.29, 134.3 61.95, 134.09 74.58 M134.09 74.58 C135.86 92.81, 126.43 98.36, 109.23 99.44 M134.09 74.58 C132.32 93.08, 124.43 101.65, 109.23 99.44 M109.23 99.44 C85.44 102.02, 59.62 98.3, 24.86 99.44 M109.23 99.44 C77.54 99.28, 45.52 98.44, 24.86 99.44 M24.86 99.44 C8.91 99.07, -1.8 92.88, 0 74.58 M24.86 99.44 C6.36 98.91, -2.03 90.63, 0 74.58 M0 74.58 C1.22 60.39, -0.32 44.55, 0 24.86 M0 74.58 C-0.11 57.05, -0.98 39.55, 0 24.86 M0 24.86 C1.47 10.14, 6.83 -0.51, 24.86 0 M0 24.86 C-1.67 9.42, 6.53 -2.05, 24.86 0" stroke="#000000" stroke-width="1" fill="none"></path></g><g transform="translate(1053.5810494767952 1446.779666796091) rotate(0 53.94190216064453 27)"><text x="53.94190216064453" y="0" font-family="Virgil, Segoe UI Emoji" font-size="15.397742164912032px" fill="#000000" text-anchor="middle" style="white-space: pre;" direction="ltr" dominant-baseline="text-before-edge">life - damage </text><text x="53.94190216064453" y="18" font-family="Virgil, Segoe UI Emoji" font-size="15.397742164912032px" fill="#000000" text-anchor="middle" style="white-space: pre;" direction="ltr" dominant-baseline="text-before-edge">=</text><text x="53.94190216064453" y="36" font-family="Virgil, Segoe UI Emoji" font-size="15.397742164912032px" fill="#000000" text-anchor="middle" style="white-space: pre;" direction="ltr" dominant-baseline="text-before-edge">new life</text></g><g transform="translate(1056.66879102073 1423.9087827614312) rotate(0 52.53370666503906 9)"><text x="0" y="0" font-family="Virgil, Segoe UI Emoji" font-size="15.397742164912032px" fill="#000000" text-anchor="start" style="white-space: pre;" direction="ltr" dominant-baseline="text-before-edge">WaterMonster</text></g><g stroke-linecap="round"><g transform="translate(942.636170827308 1353.3333740234375) rotate(0 -1.9207798760384378 27.16972204274498)"><path d="M0.75 0.73 C0.08 9.94, -3.76 45.46, -4.6 54.27 M-0.31 0.07 C-0.53 9.04, -1.38 43.48, -2.2 52.65" stroke="#000000" stroke-width="1" fill="none"></path></g><g transform="translate(942.636170827308 1353.3333740234375) rotate(0 -1.9207798760384378 27.16972204274498)"><path d="M-8.79 26.07 C-6.68 32.98, -5.86 38.78, -2.76 51.26 M-9.14 26.14 C-7 36.23, -3.96 45.75, -1.2 52.59" stroke="#000000" stroke-width="1" fill="none"></path></g><g transform="translate(942.636170827308 1353.3333740234375) rotate(0 -1.9207798760384378 27.16972204274498)"><path d="M9.48 27.04 C7 33.82, 3.22 39.38, -2.76 51.26 M9.12 27.1 C4.61 36.86, 1.01 46.03, -1.2 52.59" stroke="#000000" stroke-width="1" fill="none"></path></g></g><mask></mask><g stroke-linecap="round"><g transform="translate(1110.2236071974871 1351.4969039338173) rotate(0 -1.076463662888841 26.796453849887484)"><path d="M-0.63 -0.82 C-1.15 8.02, -2.58 43.94, -2.98 53.03 M1.24 1.37 C0.64 10.39, -2.64 46.03, -3.39 54.41" stroke="#000000" stroke-width="1" fill="none"></path></g><g transform="translate(1110.2236071974871 1351.4969039338173) rotate(0 -1.076463662888841 26.796453849887484)"><path d="M-11.59 30.26 C-8.62 38.25, -5.29 43.84, -1.84 55.12 M-10.5 29.53 C-7.15 38.17, -5.16 47.45, -2.81 53.93" stroke="#000000" stroke-width="1" fill="none"></path></g><g transform="translate(1110.2236071974871 1351.4969039338173) rotate(0 -1.076463662888841 26.796453849887484)"><path d="M6.62 31.91 C3.95 39.3, 1.62 44.37, -1.84 55.12 M7.71 31.18 C4.72 39.42, 0.36 48.12, -2.81 53.93" stroke="#000000" stroke-width="1" fill="none"></path></g></g><mask></mask><g stroke-linecap="round" transform="translate(1017.8027052511361 1527.3333129882812) rotate(0 138 68)"><path d="M173.75 17.25 M173.75 17.25 C196.57 27.93, 216.12 38.99, 241.25 51.75 M173.75 17.25 C196.05 28.61, 217.79 40.83, 241.25 51.75 M241.25 51.75 C277.19 70.78, 276.63 67.68, 241.25 86.25 M241.25 51.75 C277.53 68.91, 276.87 70.57, 241.25 86.25 M241.25 86.25 C221.23 93.65, 202.4 102.78, 173.75 118.75 M241.25 86.25 C226.9 94.22, 214.3 99.09, 173.75 118.75 M173.75 118.75 C140.93 137.8, 140.39 135.63, 104.25 118.75 M173.75 118.75 C139.28 134.63, 140.86 134.73, 104.25 118.75 M104.25 118.75 C87.75 110.78, 70.26 103.29, 34.75 86.25 M104.25 118.75 C78.23 106.98, 53.65 94.68, 34.75 86.25 M34.75 86.25 C-1.48 70.14, 0.93 67.48, 34.75 51.75 M34.75 86.25 C-0.19 70.15, 1.1 71.28, 34.75 51.75 M34.75 51.75 C57.16 38.36, 83.6 29.4, 104.25 17.25 M34.75 51.75 C53.14 42.58, 70.8 35.54, 104.25 17.25 M104.25 17.25 C140.23 -0.92, 138.75 0.87, 173.75 17.25 M104.25 17.25 C138.03 -0.98, 137.51 1.18, 173.75 17.25" stroke="#000000" stroke-width="1" fill="none"></path></g><g transform="translate(1101.186738454261 1566.5333129882813) rotate(0 54.615966796875 28.799999999999955)"><text x="54.615966796875" y="0" font-family="Virgil, Segoe UI Emoji" font-size="16px" fill="#000000" text-anchor="middle" style="white-space: pre;" direction="ltr" dominant-baseline="text-before-edge">Si</text><text x="54.615966796875" y="19.2" font-family="Virgil, Segoe UI Emoji" font-size="16px" fill="#000000" text-anchor="middle" style="white-space: pre;" direction="ltr" dominant-baseline="text-before-edge">WaterMonster</text><text x="54.615966796875" y="38.4" font-family="Virgil, Segoe UI Emoji" font-size="16px" fill="#000000" text-anchor="middle" style="white-space: pre;" direction="ltr" dominant-baseline="text-before-edge">isKo</text></g><g stroke-linecap="round" transform="translate(1342.6361097921517 1578.3333129882812) rotate(0 28.666656494140625 19)"><path d="M9.5 0 M9.5 0 C19.19 0.31, 28.22 -0.62, 47.83 0 M9.5 0 C24.22 0.15, 39.3 -0.01, 47.83 0 M47.83 0 C54.15 0.43, 58.33 2.41, 57.33 9.5 M47.83 0 C56.37 -0.79, 56.23 2.98, 57.33 9.5 M57.33 9.5 C56.34 13.89, 56.72 19.35, 57.33 28.5 M57.33 9.5 C57.14 13.41, 57.27 18.68, 57.33 28.5 M57.33 28.5 C56.45 36.44, 53.02 38.11, 47.83 38 M57.33 28.5 C57.79 33.01, 52.95 38.02, 47.83 38 M47.83 38 C35.03 37.73, 24.98 37.41, 9.5 38 M47.83 38 C33.64 37.59, 18.65 37.13, 9.5 38 M9.5 38 C3.88 37.08, 0.95 36.01, 0 28.5 M9.5 38 C4.09 39.68, -1.88 35.59, 0 28.5 M0 28.5 C0.9 21.24, 0.68 15.69, 0 9.5 M0 28.5 C0.55 23.41, -0.8 18.16, 0 9.5 M0 9.5 C-0.15 5.11, 1.62 -0.61, 9.5 0 M0 9.5 C1.15 4.99, 1.56 1.61, 9.5 0" stroke="#000000" stroke-width="1" fill="none"></path></g><g transform="translate(1354.422776662269 1587.7333129882813) rotate(0 16.879989624023438 9.600000000000023)"><text x="16.879989624023438" y="0" font-family="Virgil, Segoe UI Emoji" font-size="16px" fill="#000000" text-anchor="middle" style="white-space: pre;" direction="ltr" dominant-baseline="text-before-edge">true</text></g><g stroke-linecap="round" transform="translate(674.6361555685189 1576.6666870117188) rotate(0 28.666656494140625 19)"><path d="M9.5 0 M9.5 0 C22.64 0.66, 36.66 1.2, 47.83 0 M9.5 0 C21.54 -0.37, 34.7 -0.64, 47.83 0 M47.83 0 C55.78 1.51, 55.65 1.42, 57.33 9.5 M47.83 0 C55.16 -0.89, 59.08 3.41, 57.33 9.5 M57.33 9.5 C57.88 15.85, 55.76 25.41, 57.33 28.5 M57.33 9.5 C56.96 14.58, 58.34 21.77, 57.33 28.5 M57.33 28.5 C57.88 35.17, 52.71 38.51, 47.83 38 M57.33 28.5 C56.04 35.4, 54.34 35.75, 47.83 38 M47.83 38 C37.16 37.8, 30.27 37.72, 9.5 38 M47.83 38 C35.32 38.11, 24.1 39.15, 9.5 38 M9.5 38 C3.39 38.06, 0.15 34.36, 0 28.5 M9.5 38 C2.5 38.7, 2.23 33.83, 0 28.5 M0 28.5 C-1.16 20.8, -1.49 16.04, 0 9.5 M0 28.5 C-0.56 22.64, -1 17.06, 0 9.5 M0 9.5 C1.57 4.13, 4.64 1.73, 9.5 0 M0 9.5 C0.68 1.86, 4.37 0.36, 9.5 0" stroke="#000000" stroke-width="1" fill="none"></path></g><g transform="translate(686.4228224386361 1586.0666870117188) rotate(0 16.879989624023438 9.600000000000023)"><text x="16.879989624023438" y="0" font-family="Virgil, Segoe UI Emoji" font-size="16px" fill="#000000" text-anchor="middle" style="white-space: pre;" direction="ltr" dominant-baseline="text-before-edge">true</text></g><g stroke-linecap="round" transform="translate(857.3028578390267 1686) rotate(0 28.666656494140625 19)"><path d="M9.5 0 M9.5 0 C20.46 -0.37, 31.93 1.89, 47.83 0 M9.5 0 C24.33 -0.05, 39.05 0.44, 47.83 0 M47.83 0 C56.01 0.7, 56.46 3.67, 57.33 9.5 M47.83 0 C52.83 -1.99, 58.55 3.25, 57.33 9.5 M57.33 9.5 C56.15 17.92, 58.99 23.16, 57.33 28.5 M57.33 9.5 C56.66 15.75, 57.27 20.6, 57.33 28.5 M57.33 28.5 C56.42 33.68, 53.12 37.07, 47.83 38 M57.33 28.5 C57.34 37.04, 54.08 38.26, 47.83 38 M47.83 38 C35.71 38.02, 25.79 38.01, 9.5 38 M47.83 38 C35.93 38.21, 25.58 37.47, 9.5 38 M9.5 38 C3.7 39.02, -0.64 33.71, 0 28.5 M9.5 38 C1.36 36.31, -0.07 34.38, 0 28.5 M0 28.5 C-0.88 20.21, -1.38 17.09, 0 9.5 M0 28.5 C0.14 21.34, 0.36 15.41, 0 9.5 M0 9.5 C-1.31 3.46, 2.72 1.92, 9.5 0 M0 9.5 C-1.97 5.11, 1.54 0.12, 9.5 0" stroke="#000000" stroke-width="1" fill="none"></path></g><g transform="translate(865.9215330709603 1695.4) rotate(0 20.04798126220703 9.600000000000023)"><text x="20.04798126220703" y="0" font-family="Virgil, Segoe UI Emoji" font-size="16px" fill="#000000" text-anchor="middle" style="white-space: pre;" direction="ltr" dominant-baseline="text-before-edge">false</text></g><g stroke-linecap="round" transform="translate(1134.9694838155892 1682.9999389648438) rotate(0 28.666656494140625 19)"><path d="M9.5 0 M9.5 0 C22.34 1.19, 37.91 1.85, 47.83 0 M9.5 0 C20.97 0.12, 32.72 -1, 47.83 0 M47.83 0 C55.22 0.07, 58.25 5.13, 57.33 9.5 M47.83 0 C53.05 -1.66, 59.57 4.95, 57.33 9.5 M57.33 9.5 C57.85 14.65, 57.83 22.08, 57.33 28.5 M57.33 9.5 C56.75 12.9, 57.25 18.1, 57.33 28.5 M57.33 28.5 C57.26 35.06, 54.42 38.96, 47.83 38 M57.33 28.5 C55.99 34.67, 54.45 40.23, 47.83 38 M47.83 38 C35.42 37.45, 24.57 39.97, 9.5 38 M47.83 38 C37.68 37.64, 27.38 37.46, 9.5 38 M9.5 38 C3.11 37.61, 0.79 32.92, 0 28.5 M9.5 38 C1.99 36.71, -2.23 32.95, 0 28.5 M0 28.5 C1.55 21.87, -1.17 15.1, 0 9.5 M0 28.5 C-0.09 23.42, -0.69 17.31, 0 9.5 M0 9.5 C-1.42 3.27, 2.78 -1.8, 9.5 0 M0 9.5 C0.56 3.32, 1.63 1.96, 9.5 0" stroke="#000000" stroke-width="1" fill="none"></path></g><g transform="translate(1143.5881590475228 1692.3999389648438) rotate(0 20.04798126220703 9.600000000000023)"><text x="20.04798126220703" y="0" font-family="Virgil, Segoe UI Emoji" font-size="16px" fill="#000000" text-anchor="middle" style="white-space: pre;" direction="ltr" dominant-baseline="text-before-edge">false</text></g><g stroke-linecap="round" transform="translate(751.3028273214486 1527) rotate(0 138 68)"><path d="M173.75 17.25 M173.75 17.25 C189.9 26.1, 201.05 31.01, 241.25 51.75 M173.75 17.25 C196.08 29.46, 220.22 41.11, 241.25 51.75 M241.25 51.75 C275.58 67.87, 275.08 69.03, 241.25 86.25 M241.25 51.75 C275.37 69.88, 276.11 69.39, 241.25 86.25 M241.25 86.25 C222.81 94.82, 205.43 103.64, 173.75 118.75 M241.25 86.25 C217.05 96.41, 192.86 109.75, 173.75 118.75 M173.75 118.75 C140.48 136.59, 139.17 134.32, 104.25 118.75 M173.75 118.75 C136.89 134.5, 139.72 136.47, 104.25 118.75 M104.25 118.75 C85.13 107.87, 61.76 100.1, 34.75 86.25 M104.25 118.75 C86.46 110.15, 67.76 100.97, 34.75 86.25 M34.75 86.25 C-1.29 69.93, -1.61 69.81, 34.75 51.75 M34.75 86.25 C-0.79 69.72, 0.54 68.35, 34.75 51.75 M34.75 51.75 C48.36 45.72, 62.21 37.85, 104.25 17.25 M34.75 51.75 C57.77 39.38, 80.04 28.78, 104.25 17.25 M104.25 17.25 C140.87 -1.95, 139.26 -0.36, 173.75 17.25 M104.25 17.25 C139.03 1.15, 139.03 0.53, 173.75 17.25" stroke="#000000" stroke-width="1" fill="none"></path></g><g transform="translate(844.1668562521127 1566.2) rotate(0 45.13597106933594 28.799999999999955)"><text x="45.13597106933594" y="0" font-family="Virgil, Segoe UI Emoji" font-size="16px" fill="#000000" text-anchor="middle" style="white-space: pre;" direction="ltr" dominant-baseline="text-before-edge">Si</text><text x="45.13597106933594" y="19.2" font-family="Virgil, Segoe UI Emoji" font-size="16px" fill="#000000" text-anchor="middle" style="white-space: pre;" direction="ltr" dominant-baseline="text-before-edge">FireMonster</text><text x="45.13597106933594" y="38.4" font-family="Virgil, Segoe UI Emoji" font-size="16px" fill="#000000" text-anchor="middle" style="white-space: pre;" direction="ltr" dominant-baseline="text-before-edge">isKo</text></g><g stroke-linecap="round" transform="translate(883.6362318624642 1778) rotate(0 138 68)"><path d="M173.75 17.25 M173.75 17.25 C195.08 27.43, 218.41 40.55, 241.25 51.75 M173.75 17.25 C200.73 30.58, 226.67 44.34, 241.25 51.75 M241.25 51.75 C274.59 68.81, 275.82 70.73, 241.25 86.25 M241.25 51.75 C274.67 70.39, 275.93 70.09, 241.25 86.25 M241.25 86.25 C226.6 92.76, 210.26 101.04, 173.75 118.75 M241.25 86.25 C216.03 99.05, 190.22 110.54, 173.75 118.75 M173.75 118.75 C137.64 136.12, 138.2 137.14, 104.25 118.75 M173.75 118.75 C139.23 134.49, 140.15 134.34, 104.25 118.75 M104.25 118.75 C89 114.37, 76.27 107.88, 34.75 86.25 M104.25 118.75 C80.26 107.67, 57.05 96.39, 34.75 86.25 M34.75 86.25 C-0.32 70.07, 1.86 67.32, 34.75 51.75 M34.75 86.25 C-1.07 68.82, -0.24 70.69, 34.75 51.75 M34.75 51.75 C60.78 39.3, 90.67 25.67, 104.25 17.25 M34.75 51.75 C61.14 37.76, 89.24 25.94, 104.25 17.25 M104.25 17.25 C138.72 -1.24, 139.54 1.53, 173.75 17.25 M104.25 17.25 C138.55 -0.66, 137.38 -0.88, 173.75 17.25" stroke="#000000" stroke-width="1" fill="none"></path></g><g transform="translate(976.7802672018197 1817.2) rotate(0 44.85596466064453 28.799999999999955)"><text x="44.85596466064453" y="0" font-family="Virgil, Segoe UI Emoji" font-size="16px" fill="#000000" text-anchor="middle" style="white-space: pre;" direction="ltr" dominant-baseline="text-before-edge">Si</text><text x="44.85596466064453" y="19.2" font-family="Virgil, Segoe UI Emoji" font-size="16px" fill="#000000" text-anchor="middle" style="white-space: pre;" direction="ltr" dominant-baseline="text-before-edge">AirMonstrer</text><text x="44.85596466064453" y="38.4" font-family="Virgil, Segoe UI Emoji" font-size="16px" fill="#000000" text-anchor="middle" style="white-space: pre;" direction="ltr" dominant-baseline="text-before-edge">isKo</text></g><g stroke-linecap="round" transform="translate(1176.636170827308 1827) rotate(0 28.666656494140625 19)"><path d="M9.5 0 M9.5 0 C20.04 -1.63, 30.17 -1.88, 47.83 0 M9.5 0 C22.17 0.33, 34.35 -0.2, 47.83 0 M47.83 0 C52.7 0.72, 58.63 4.09, 57.33 9.5 M47.83 0 C52.25 0.29, 57.33 4.95, 57.33 9.5 M57.33 9.5 C55.72 14.01, 55.37 18.75, 57.33 28.5 M57.33 9.5 C56.94 14.32, 56.99 18.32, 57.33 28.5 M57.33 28.5 C59.09 36.7, 52.89 37.22, 47.83 38 M57.33 28.5 C56.74 37.01, 52.2 39.06, 47.83 38 M47.83 38 C33.56 36.8, 19.88 37.62, 9.5 38 M47.83 38 C35.86 37.79, 25.17 37.91, 9.5 38 M9.5 38 C1.88 38.64, -0.36 36.34, 0 28.5 M9.5 38 C2.5 36.88, -1.94 34.15, 0 28.5 M0 28.5 C0.84 22.79, -1.08 15.5, 0 9.5 M0 28.5 C0.45 21.72, 0.56 15.57, 0 9.5 M0 9.5 C-1.25 2.53, 5.15 -1.59, 9.5 0 M0 9.5 C1.59 4.21, 2.32 1.35, 9.5 0" stroke="#000000" stroke-width="1" fill="none"></path></g><g transform="translate(1185.2548460592416 1836.4) rotate(0 20.04798126220703 9.600000000000023)"><text x="20.04798126220703" y="0" font-family="Virgil, Segoe UI Emoji" font-size="16px" fill="#000000" text-anchor="middle" style="white-space: pre;" direction="ltr" dominant-baseline="text-before-edge">false</text></g><g stroke-linecap="round" transform="translate(992.636170827308 1959) rotate(0 28.666656494140625 19)"><path d="M9.5 0 M9.5 0 C22.59 0.52, 34.69 -0.55, 47.83 0 M9.5 0 C18.65 -1.08, 27.01 -0.25, 47.83 0 M47.83 0 C55.72 -1.85, 55.91 3.96, 57.33 9.5 M47.83 0 C52.38 0.68, 55.12 4.82, 57.33 9.5 M57.33 9.5 C56.64 14.75, 56.73 18.34, 57.33 28.5 M57.33 9.5 C57.14 16.62, 58.41 23.42, 57.33 28.5 M57.33 28.5 C58.26 35.99, 53.29 36.38, 47.83 38 M57.33 28.5 C56.7 33.81, 53.58 37.92, 47.83 38 M47.83 38 C35.15 37.82, 25.03 38.06, 9.5 38 M47.83 38 C39.55 37.64, 29.26 37.09, 9.5 38 M9.5 38 C2.57 38.51, -0.58 35.5, 0 28.5 M9.5 38 C4.12 38.58, -1.37 34.06, 0 28.5 M0 28.5 C0.76 21.01, 1 14.8, 0 9.5 M0 28.5 C-0.7 24.64, 0.49 19.12, 0 9.5 M0 9.5 C1.17 3.22, 4.06 -1.13, 9.5 0 M0 9.5 C1.77 3.19, 1.84 1.88, 9.5 0" stroke="#000000" stroke-width="1" fill="none"></path></g><g transform="translate(1004.4228376974252 1968.4) rotate(0 16.879989624023438 9.599999999999909)"><text x="16.879989624023438" y="0" font-family="Virgil, Segoe UI Emoji" font-size="16px" fill="#000000" text-anchor="middle" style="white-space: pre;" direction="ltr" dominant-baseline="text-before-edge">true</text></g><g stroke-linecap="round" transform="translate(1462.636170827308 1547.6666564941406) rotate(0 69.66665649414062 51.666656494140625)"><path d="M25.83 0 M25.83 0 C49.29 -1.23, 72.57 0.12, 113.5 0 M25.83 0 C51.28 0.38, 76.85 0.27, 113.5 0 M113.5 0 C129.75 -1.68, 138.74 9.12, 139.33 25.83 M113.5 0 C130.06 0.76, 140.28 9.19, 139.33 25.83 M139.33 25.83 C137.81 39.19, 139.83 49.17, 139.33 77.5 M139.33 25.83 C138.59 44.69, 138.12 62.24, 139.33 77.5 M139.33 77.5 C140.24 93.98, 131.89 103.39, 113.5 103.33 M139.33 77.5 C140.36 93.42, 132.5 103.35, 113.5 103.33 M113.5 103.33 C90.47 101.05, 72.16 103.54, 25.83 103.33 M113.5 103.33 C81.91 103.9, 49.7 104.13, 25.83 103.33 M25.83 103.33 C6.78 104.8, -0.77 95.1, 0 77.5 M25.83 103.33 C7.71 101.57, -1.99 93.29, 0 77.5 M0 77.5 C-1.62 57.54, -0.04 40.24, 0 25.83 M0 77.5 C0.57 63.79, 0.46 50.82, 0 25.83 M0 25.83 C-1.33 8.22, 9.84 1.93, 25.83 0 M0 25.83 C0.18 9.08, 7.7 -1.37, 25.83 0" stroke="#000000" stroke-width="1" fill="none"></path></g><g transform="translate(1481.3028578390267 1580.3333129882812) rotate(0 54.615966796875 19.200000000000045)"><text x="54.615966796875" y="0" font-family="Virgil, Segoe UI Emoji" font-size="16px" fill="#000000" text-anchor="middle" style="white-space: pre;" direction="ltr" dominant-baseline="text-before-edge">WaterMonster</text><text x="54.615966796875" y="19.2" font-family="Virgil, Segoe UI Emoji" font-size="16px" fill="#000000" text-anchor="middle" style="white-space: pre;" direction="ltr" dominant-baseline="text-before-edge">is dead</text></g><g stroke-linecap="round" transform="translate(950.9695143331674 2036.3334045410156) rotate(0 69.66665649414062 51.666656494140625)"><path d="M25.83 0 M25.83 0 C57.54 0.7, 93.93 -2.1, 113.5 0 M25.83 0 C60.26 0.03, 94.93 0.42, 113.5 0 M113.5 0 C132.11 -1.17, 137.99 7.61, 139.33 25.83 M113.5 0 C129.94 -1.56, 139.73 8.95, 139.33 25.83 M139.33 25.83 C137.73 42.46, 140.87 63.4, 139.33 77.5 M139.33 25.83 C139.86 39.37, 139.47 53.43, 139.33 77.5 M139.33 77.5 C139.23 96.49, 130.66 104.16, 113.5 103.33 M139.33 77.5 C137.91 93.02, 129.21 103.76, 113.5 103.33 M113.5 103.33 C82.07 102.64, 50.36 103.06, 25.83 103.33 M113.5 103.33 C93.68 102.73, 75.03 101.96, 25.83 103.33 M25.83 103.33 C6.8 101.54, -1.41 93.27, 0 77.5 M25.83 103.33 C7.12 105.53, 1.3 95.77, 0 77.5 M0 77.5 C-2.01 68.06, -0.61 53.56, 0 25.83 M0 77.5 C0.5 56.88, 0.81 37.18, 0 25.83 M0 25.83 C-1.17 9.9, 10.24 0.44, 25.83 0 M0 25.83 C1.03 7.41, 9.15 -1.63, 25.83 0" stroke="#000000" stroke-width="1" fill="none"></path></g><g transform="translate(982.8361982931283 2069.0000610351562) rotate(0 41.41596984863281 19.200000000000045)"><text x="41.41596984863281" y="0" font-family="Virgil, Segoe UI Emoji" font-size="16px" fill="#000000" text-anchor="middle" style="white-space: pre;" direction="ltr" dominant-baseline="text-before-edge">AirMonster</text><text x="41.41596984863281" y="19.2" font-family="Virgil, Segoe UI Emoji" font-size="16px" fill="#000000" text-anchor="middle" style="white-space: pre;" direction="ltr" dominant-baseline="text-before-edge">is dead</text></g><g stroke-linecap="round" transform="translate(461.96950416064135 1538.6666768391933) rotate(0 69.66665649414062 51.666656494140625)"><path d="M25.83 0 M25.83 0 C52.93 0.96, 83.57 1.09, 113.5 0 M25.83 0 C48.49 0.04, 69.71 -0.45, 113.5 0 M113.5 0 C131.94 -0.2, 138.59 7.45, 139.33 25.83 M113.5 0 C128.81 -1.48, 138.31 7.71, 139.33 25.83 M139.33 25.83 C141.07 45.43, 138.34 65.47, 139.33 77.5 M139.33 25.83 C139.65 37.87, 138.79 47.68, 139.33 77.5 M139.33 77.5 C140.88 94.56, 129.86 102.55, 113.5 103.33 M139.33 77.5 C140.82 95.51, 130.62 105.57, 113.5 103.33 M113.5 103.33 C92.67 104.84, 73.81 104.11, 25.83 103.33 M113.5 103.33 C94.88 104.47, 74.9 103.48, 25.83 103.33 M25.83 103.33 C8.7 103.31, 1.4 93.39, 0 77.5 M25.83 103.33 C7.23 101.51, -0.59 94.47, 0 77.5 M0 77.5 C0.36 59.22, 2.25 41.83, 0 25.83 M0 77.5 C1.09 66.4, 1.26 54.99, 0 25.83 M0 25.83 C0.91 6.79, 8.13 -0.36, 25.83 0 M0 25.83 C0.49 7.65, 8.86 -1.06, 25.83 0" stroke="#000000" stroke-width="1" fill="none"></path></g><g transform="translate(490.11618689989916 1571.333333333334) rotate(0 45.13597106933594 19.200000000000045)"><text x="45.13597106933594" y="0" font-family="Virgil, Segoe UI Emoji" font-size="16px" fill="#000000" text-anchor="middle" style="white-space: pre;" direction="ltr" dominant-baseline="text-before-edge">FireMonster</text><text x="45.13597106933594" y="19.2" font-family="Virgil, Segoe UI Emoji" font-size="16px" fill="#000000" text-anchor="middle" style="white-space: pre;" direction="ltr" dominant-baseline="text-before-edge">is dead</text></g><g stroke-linecap="round"><g transform="translate(1300.9695346782194 1597.0000813802087) rotate(0 19.14102364592253 0.8158707035555608)"><path d="M-0.47 1.02 C6.12 1.16, 32.06 0.29, 38.75 0.31 M1.48 0.51 C7.99 0.82, 31.52 1.01, 37.85 1.32" stroke="#000000" stroke-width="1" fill="none"></path></g><g transform="translate(1300.9695346782194 1597.0000813802087) rotate(0 19.14102364592253 0.8158707035555608)"><path d="M21.14 7.58 C22.21 7.72, 27.88 3.63, 37.7 -0.32 M20.38 7.31 C23.17 6.7, 27.56 4.18, 37.47 1.94" stroke="#000000" stroke-width="1" fill="none"></path></g><g transform="translate(1300.9695346782194 1597.0000813802087) rotate(0 19.14102364592253 0.8158707035555608)"><path d="M21.5 -5.65 C22.42 -2.4, 28.01 -3.37, 37.7 -0.32 M20.74 -5.92 C23.44 -3.6, 27.74 -3.19, 37.47 1.94" stroke="#000000" stroke-width="1" fill="none"></path></g></g><mask></mask><g stroke-linecap="round"><g transform="translate(1410.4951370088593 1594.8508366532155) rotate(0 19.8705150879361 0.8491784145496695)"><path d="M0.51 0.55 C6.77 0.51, 31.68 0.57, 38.04 0.7 M-0.69 -0.2 C5.94 -0.18, 33.98 1.43, 40.43 1.9" stroke="#000000" stroke-width="1" fill="none"></path></g><g transform="translate(1410.4951370088593 1594.8508366532155) rotate(0 19.8705150879361 0.8491784145496695)"><path d="M22.76 6.36 C27.04 5.54, 34.28 4.97, 39.14 0.74 M22.13 6.85 C26.67 6.22, 29.41 5.93, 39.51 1.03" stroke="#000000" stroke-width="1" fill="none"></path></g><g transform="translate(1410.4951370088593 1594.8508366532155) rotate(0 19.8705150879361 0.8491784145496695)"><path d="M23.59 -6.84 C27.7 -3.23, 34.66 0.64, 39.14 0.74 M22.96 -6.36 C27.29 -4.07, 29.84 -1.45, 39.51 1.03" stroke="#000000" stroke-width="1" fill="none"></path></g></g><mask></mask><g stroke-linecap="round"><g transform="translate(1163.198232391997 1658.1868338687607) rotate(0 2.85259191371631 12.474069951910678)"><path d="M1.12 -1.2 C2.13 2.85, 4.93 20.45, 5.45 24.73 M0.26 0.79 C1.2 4.97, 4.33 22.02, 4.81 26.14" stroke="#000000" stroke-width="1" fill="none"></path></g><g transform="translate(1163.198232391997 1658.1868338687607) rotate(0 2.85259191371631 12.474069951910678)"><path d="M-2.6 15.62 C0.02 17.08, 1.3 21.19, 3.56 27.08 M-1.5 14.45 C0.21 18.03, 2.49 21.07, 5.18 26.67" stroke="#000000" stroke-width="1" fill="none"></path></g><g transform="translate(1163.198232391997 1658.1868338687607) rotate(0 2.85259191371631 12.474069951910678)"><path d="M5.99 14.28 C6.44 16.16, 5.54 20.61, 3.56 27.08 M7.1 13.11 C6.31 17.03, 6.09 20.45, 5.18 26.67" stroke="#000000" stroke-width="1" fill="none"></path></g></g><mask></mask><g stroke-linecap="round"><g transform="translate(1132.3239036586208 1505.794650232593) rotate(0 2.259236656950293 12.244921776780984)"><path d="M1.08 0.56 C1.97 4.47, 3.6 19.85, 4.33 23.77 M0.19 -0.2 C0.96 3.79, 2.3 20.49, 3.09 24.69" stroke="#000000" stroke-width="1" fill="none"></path></g><g transform="translate(1132.3239036586208 1505.794650232593) rotate(0 2.259236656950293 12.244921776780984)"><path d="M-2.15 12.81 C-2.71 16.36, -1.09 18.41, 3.43 25.41 M-2.96 13.42 C-0.46 17.1, 1.92 21.79, 2.61 24.91" stroke="#000000" stroke-width="1" fill="none"></path></g><g transform="translate(1132.3239036586208 1505.794650232593) rotate(0 2.259236656950293 12.244921776780984)"><path d="M6.48 11.7 C4.05 15.57, 3.79 17.86, 3.43 25.41 M5.67 12.31 C4.98 16.43, 4.18 21.52, 2.61 24.91" stroke="#000000" stroke-width="1" fill="none"></path></g></g><mask></mask><g stroke-linecap="round"><g transform="translate(885.162217476721 1499.3374007023915) rotate(0 2.584971446312437 12.95746815753921)"><path d="M-0.46 1.18 C0.65 5.09, 4.76 19.98, 5.63 24.09 M1.51 0.75 C2.61 4.74, 4.68 21.29, 5.08 25.16" stroke="#000000" stroke-width="1" fill="none"></path></g><g transform="translate(885.162217476721 1499.3374007023915) rotate(0 2.584971446312437 12.95746815753921)"><path d="M0.6 14.61 C-0.3 16.11, 2.79 19.51, 4.96 25.15 M-0.18 14.13 C1.54 18.26, 3.21 22.89, 5.07 24.82" stroke="#000000" stroke-width="1" fill="none"></path></g><g transform="translate(885.162217476721 1499.3374007023915) rotate(0 2.584971446312437 12.95746815753921)"><path d="M9.24 13.59 C6.5 15.28, 7.73 18.89, 4.96 25.15 M8.46 13.11 C6.94 17.61, 5.37 22.62, 5.07 24.82" stroke="#000000" stroke-width="1" fill="none"></path></g></g><mask></mask><g stroke-linecap="round"><g transform="translate(883.2387718120196 1662.2800201171347) rotate(0 2.543936245656994 12.572370648829406)"><path d="M1.02 0.22 C1.98 4.46, 4.31 21.9, 5 25.86 M0.09 -0.71 C0.98 3.16, 3.37 19.96, 4.12 24.2" stroke="#000000" stroke-width="1" fill="none"></path></g><g transform="translate(883.2387718120196 1662.2800201171347) rotate(0 2.543936245656994 12.572370648829406)"><path d="M-1.81 13.21 C0.37 15.92, -0.21 18.91, 5.28 23.84 M-1.82 12.75 C0.51 16.29, 1.92 20.59, 4.52 24.1" stroke="#000000" stroke-width="1" fill="none"></path></g><g transform="translate(883.2387718120196 1662.2800201171347) rotate(0 2.543936245656994 12.572370648829406)"><path d="M6.78 11.86 C6.97 14.95, 4.4 18.25, 5.28 23.84 M6.77 11.4 C6.4 15.44, 5.1 20.17, 4.52 24.1" stroke="#000000" stroke-width="1" fill="none"></path></g></g><mask></mask><g stroke-linecap="round"><g transform="translate(889.1464887976867 1723.0056995594389) rotate(0 33.96266081520963 40.665985254315046)"><path d="M0.13 0.89 C11.49 14.19, 57.62 66.47, 69.19 80.01 M-1.26 0.31 C9.88 13.71, 56.66 67.68, 68.4 81.02" stroke="#000000" stroke-width="1" fill="none"></path></g><g transform="translate(889.1464887976867 1723.0056995594389) rotate(0 33.96266081520963 40.665985254315046)"><path d="M43.62 67 C50.58 73.19, 64.2 77.08, 68.69 80.95 M43.11 66.15 C52.61 73.22, 63.39 77.85, 69.33 81.43" stroke="#000000" stroke-width="1" fill="none"></path></g><g transform="translate(889.1464887976867 1723.0056995594389) rotate(0 33.96266081520963 40.665985254315046)"><path d="M59.09 53.52 C60.13 64.91, 67.79 73.99, 68.69 80.95 M58.58 52.67 C62.07 64.94, 66.79 74.85, 69.33 81.43" stroke="#000000" stroke-width="1" fill="none"></path></g></g><mask></mask><g stroke-linecap="round"><g transform="translate(1170.182791667926 1724.76443369037) rotate(0 -38.627431125392434 38.35635203207153)"><path d="M0.2 1.12 C-12.58 13.6, -63.79 63.81, -76.68 76.05 M-1.15 0.66 C-14.06 13.29, -64.65 61.76, -77.46 74.21" stroke="#000000" stroke-width="1" fill="none"></path></g><g transform="translate(1170.182791667926 1724.76443369037) rotate(0 -38.627431125392434 38.35635203207153)"><path d="M-62.42 47.8 C-67.1 55.14, -73.56 65.37, -76.4 74.24 M-64.82 47.49 C-69.56 57.51, -74.77 67.53, -77.11 73.38" stroke="#000000" stroke-width="1" fill="none"></path></g><g transform="translate(1170.182791667926 1724.76443369037) rotate(0 -38.627431125392434 38.35635203207153)"><path d="M-48.18 62.57 C-57.27 65.51, -68 71.3, -76.4 74.24 M-50.58 62.27 C-60.55 66.66, -71.1 71.15, -77.11 73.38" stroke="#000000" stroke-width="1" fill="none"></path></g></g><mask></mask><g stroke-linecap="round"><g transform="translate(1143.9253082817672 1847.8719047542174) rotate(0 19.770946689322614 0.412476961600305)"><path d="M-0.26 0.2 C6.45 0.54, 33.43 1.28, 39.8 1.57 M1.81 -0.74 C8.49 -0.75, 33.61 -0.53, 39.45 -0.43" stroke="#000000" stroke-width="1" fill="none"></path></g><g transform="translate(1143.9253082817672 1847.8719047542174) rotate(0 19.770946689322614 0.412476961600305)"><path d="M21.51 7.8 C26.39 3.21, 31.73 1.75, 38.54 -0.69 M20.75 6.32 C26.32 3.64, 31.81 2.94, 39.07 -0.02" stroke="#000000" stroke-width="1" fill="none"></path></g><g transform="translate(1143.9253082817672 1847.8719047542174) rotate(0 19.770946689322614 0.412476961600305)"><path d="M21.67 -5.44 C26.46 -6.54, 31.75 -4.52, 38.54 -0.69 M20.91 -6.91 C26.5 -5.82, 31.95 -2.75, 39.07 -0.02" stroke="#000000" stroke-width="1" fill="none"></path></g></g><mask></mask><g stroke-linecap="round"><g transform="translate(1019.9740859247913 1923.082247503307) rotate(0 1.813772410667923 12.730777521858045)"><path d="M-0.69 0.57 C-0.16 4.6, 3.42 20.36, 4.32 24.4 M1.15 -0.18 C1.38 3.98, 2.63 21.28, 3.08 25.64" stroke="#000000" stroke-width="1" fill="none"></path></g><g transform="translate(1019.9740859247913 1923.082247503307) rotate(0 1.813772410667923 12.730777521858045)"><path d="M-1.67 13.52 C-0.74 18.52, 1.78 23.93, 1.94 25.06 M-2.11 14.41 C-0.72 18.3, 1.42 21.93, 3.23 25.4" stroke="#000000" stroke-width="1" fill="none"></path></g><g transform="translate(1019.9740859247913 1923.082247503307) rotate(0 1.813772410667923 12.730777521858045)"><path d="M7 12.78 C4.51 18.02, 3.61 23.72, 1.94 25.06 M6.56 13.67 C5.03 17.75, 4.25 21.63, 3.23 25.4" stroke="#000000" stroke-width="1" fill="none"></path></g></g><mask></mask><g stroke-linecap="round"><g transform="translate(1020.7984161872971 2007.5760994101524) rotate(0 2.0786193435559426 12.831894680399728)"><path d="M-0.55 -0.56 C0.35 3.47, 3.7 20.71, 4.71 24.78 M1.36 1.75 C2.15 5.93, 3.05 22.41, 3.68 26.23" stroke="#000000" stroke-width="1" fill="none"></path></g><g transform="translate(1020.7984161872971 2007.5760994101524) rotate(0 2.0786193435559426 12.831894680399728)"><path d="M-2.45 14.61 C-0.65 18.28, -0.25 19.78, 4.14 26.17 M-2.1 15.05 C-0.45 17.42, 0.88 19.82, 4.15 25.77" stroke="#000000" stroke-width="1" fill="none"></path></g><g transform="translate(1020.7984161872971 2007.5760994101524) rotate(0 2.0786193435559426 12.831894680399728)"><path d="M6.2 13.73 C5.91 17.57, 4.21 19.29, 4.14 26.17 M6.55 14.17 C6.2 16.79, 5.53 19.39, 4.15 25.77" stroke="#000000" stroke-width="1" fill="none"></path></g></g><mask></mask><g stroke-linecap="round"><g transform="translate(771.659841996371 1595.2058953286057) rotate(0 -21.959209456760135 -0.9276979212488641)"><path d="M-0.18 0.65 C-7.37 0.26, -36.73 -2.06, -43.74 -2.51 M-1.73 -0.05 C-8.52 -0.27, -34.75 -1.15, -41.59 -1.26" stroke="#000000" stroke-width="1" fill="none"></path></g><g transform="translate(771.659841996371 1595.2058953286057) rotate(0 -21.959209456760135 -0.9276979212488641)"><path d="M-20.25 -9.82 C-27.38 -5.62, -31.69 -6.01, -41.08 -0.31 M-21.3 -7.81 C-26.97 -5.49, -32.61 -4.09, -41.62 -1.35" stroke="#000000" stroke-width="1" fill="none"></path></g><g transform="translate(771.659841996371 1595.2058953286057) rotate(0 -21.959209456760135 -0.9276979212488641)"><path d="M-20.63 4.78 C-27.65 5.29, -31.86 1.21, -41.08 -0.31 M-21.69 6.8 C-27.31 5.3, -32.86 2.89, -41.62 -1.35" stroke="#000000" stroke-width="1" fill="none"></path></g></g><mask></mask><g stroke-linecap="round"><g transform="translate(657.0420082494754 1601.079899233518) rotate(0 -20.909759748596393 -1.2194104675974131)"><path d="M1.14 0.14 C-5.8 -0.42, -35.01 -2.21, -42.24 -2.57 M0.29 -0.84 C-6.73 -1.32, -35.79 -1.36, -42.96 -1.36" stroke="#000000" stroke-width="1" fill="none"></path></g><g transform="translate(657.0420082494754 1601.079899233518) rotate(0 -20.909759748596393 -1.2194104675974131)"><path d="M-22.66 -7.92 C-28.93 -5.89, -33.15 -3.75, -41.76 -2.35 M-21.96 -9.11 C-28.67 -5.3, -34.88 -4.19, -43.14 -1.7" stroke="#000000" stroke-width="1" fill="none"></path></g><g transform="translate(657.0420082494754 1601.079899233518) rotate(0 -20.909759748596393 -1.2194104675974131)"><path d="M-22.68 6.69 C-29.04 5.03, -33.26 3.47, -41.76 -2.35 M-21.99 5.5 C-28.75 4.75, -34.95 1.29, -43.14 -1.7" stroke="#000000" stroke-width="1" fill="none"></path></g></g><mask></mask><g stroke-linecap="round"><g transform="translate(1239.4570662410867 1845.2250496882289) rotate(0 220.5680670766905 -431.19432486309665)"><path d="M0.43 -0.61 C108.86 -57.85, 687.09 -199.73, 651.74 -343.32 C616.38 -486.9, -67.6 -775.55, -211.71 -862.11 M-0.81 1.68 C107.4 -55.37, 686.24 -197.54, 651.01 -341.83 C615.79 -486.12, -68.16 -777.46, -212.16 -864.07" stroke="#000000" stroke-width="1" fill="none"></path></g><g transform="translate(1239.4570662410867 1845.2250496882289) rotate(0 220.5680670766905 -431.19432486309665)"><path d="M-183.39 -859.73 C-194.32 -860.76, -204.73 -864.2, -211.91 -863.23 M-181.92 -859.53 C-192.95 -862.18, -204.68 -863.62, -211.57 -863.75" stroke="#000000" stroke-width="1" fill="none"></path></g><g transform="translate(1239.4570662410867 1845.2250496882289) rotate(0 220.5680670766905 -431.19432486309665)"><path d="M-192.7 -841.44 C-199.97 -849.73, -206.7 -860.4, -211.91 -863.23 M-191.23 -841.23 C-198.97 -850.63, -207.25 -858.85, -211.57 -863.75" stroke="#000000" stroke-width="1" fill="none"></path></g></g><mask></mask><g stroke-linecap="round"><g transform="translate(850.4737787674641 1702.929714107343) rotate(0 -415.2014192971242 -358.2983893866332)"><path d="M0.29 -0.65 C-139.49 -18.69, -841.48 10.78, -839.85 -108.81 C-838.22 -228.4, -131.53 -616.45, 10.07 -718.21 M-1.01 1.62 C-140.79 -16.26, -842.16 11.91, -840.47 -107.83 C-838.78 -227.57, -132.55 -614.98, 9.14 -716.82" stroke="#000000" stroke-width="1" fill="none"></path></g><g transform="translate(850.4737787674641 1702.929714107343) rotate(0 -415.2014192971242 -358.2983893866332)"><path d="M-10.4 -692.12 C-7.23 -698.49, -1.51 -703.78, 7.41 -718.3 M-9.76 -692.79 C-4.11 -700.47, 1.89 -708.39, 10.09 -717.62" stroke="#000000" stroke-width="1" fill="none"></path></g><g transform="translate(850.4737787674641 1702.929714107343) rotate(0 -415.2014192971242 -358.2983893866332)"><path d="M-21.29 -709.51 C-16.01 -712.4, -8.09 -714.19, 7.41 -718.3 M-20.65 -710.18 C-11.65 -712.42, -2.28 -714.95, 10.09 -717.62" stroke="#000000" stroke-width="1" fill="none"></path></g></g><mask></mask><g stroke-linecap="round"><g transform="translate(1199.9755329434215 1702.7763590122304) rotate(0 412.8448300772649 -363.4812566470591)"><path d="M-0.42 0.87 C165.76 -24.86, 1025.28 -32.92, 996.54 -154.37 C967.81 -275.82, 21.91 -632.42, -172.85 -727.84 M1.55 0.29 C168.16 -25.82, 1027.99 -35.14, 998.76 -156.26 C969.54 -277.37, 21.24 -630.99, -173.8 -726.41" stroke="#000000" stroke-width="1" fill="none"></path></g><g transform="translate(1199.9755329434215 1702.7763590122304) rotate(0 412.8448300772649 -363.4812566470591)"><path d="M-142.39 -726.36 C-150.66 -725.9, -158.63 -724.9, -171.81 -727.02 M-144.8 -724.19 C-151.85 -724.31, -160.97 -725.08, -172.88 -726.93" stroke="#000000" stroke-width="1" fill="none"></path></g><g transform="translate(1199.9755329434215 1702.7763590122304) rotate(0 412.8448300772649 -363.4812566470591)"><path d="M-150.44 -707.48 C-156.69 -711.76, -162.62 -715.52, -171.81 -727.02 M-152.85 -705.32 C-157.58 -710.57, -164.51 -716.44, -172.88 -726.93" stroke="#000000" stroke-width="1" fill="none"></path></g></g><mask></mask></svg>